<svg width="17.000000" height="19.000000" viewBox="0 0 17 19" fill="none" xmlns="http://www.w3.org/2000/svg" xmlns:xlink="http://www.w3.org/1999/xlink">
	<desc>
			Created with Pixso.
	</desc>
	<defs/>
	<path id="Vector" d="M16.5 16.5L10.5 16.5M8.5 14.5C7.39 14.5 6.5 15.39 6.5 16.5C6.5 17.6 7.39 18.5 8.5 18.5C9.6 18.5 10.5 17.6 10.5 16.5C10.5 15.39 9.6 14.5 8.5 14.5ZM6.5 16.5L0.5 16.5M16.5 9.5L4.5 9.5M2.5 7.5C1.39 7.5 0.5 8.39 0.5 9.5C0.5 10.6 1.39 11.5 2.5 11.5C3.6 11.5 4.5 10.6 4.5 9.5C4.5 8.39 3.6 7.5 2.5 7.5ZM12.5 2.5L0.5 2.5M14.5 4.5C15.6 4.5 16.5 3.6 16.5 2.5C16.5 1.39 15.6 0.5 14.5 0.5C13.39 0.5 12.5 1.39 12.5 2.5C12.5 3.6 13.39 4.5 14.5 4.5Z" stroke="#000000" stroke-opacity="1.000000" stroke-width="1.000000" stroke-linecap="round"/>
</svg>
