<svg width="13.718750" height="20.750000" viewBox="0 0 13.7188 20.75" fill="none" xmlns="http://www.w3.org/2000/svg" xmlns:xlink="http://www.w3.org/1999/xlink">
	<desc>
			Created with Pixso.
	</desc>
	<defs/>
	<path id="Vector" d="M12.39 0.17C12.12 0.05 11.84 0 11.54 0L2.17 0Q1.93 0 1.71 0.04Q1.51 0.09 1.32 0.17Q1.13 0.25 0.97 0.36Q0.79 0.48 0.63 0.63Q0.48 0.79 0.36 0.97Q0.25 1.13 0.17 1.32Q0.09 1.51 0.04 1.71Q0 1.93 0 2.17L0 18.57C0 18.87 0.05 19.15 0.17 19.42Q0.25 19.61 0.36 19.77Q0.48 19.95 0.63 20.11C0.83 20.31 1.06 20.46 1.32 20.57C1.59 20.69 1.87 20.75 2.17 20.75L11.54 20.75C11.84 20.75 12.12 20.69 12.39 20.57C12.65 20.46 12.88 20.31 13.08 20.11C13.28 19.91 13.43 19.68 13.54 19.42C13.66 19.15 13.71 18.87 13.71 18.57L13.71 2.17Q13.71 1.93 13.67 1.71Q13.62 1.51 13.54 1.32C13.43 1.06 13.28 0.83 13.08 0.63C12.88 0.43 12.65 0.28 12.39 0.17ZM5.07 2L2.17 2C2.12 2 2.08 2.01 2.05 2.05Q2.02 2.07 2.01 2.1Q2 2.13 2 2.17L2 13.87L11.71 13.87L11.71 2.17C11.71 2.12 11.7 2.08 11.66 2.05C11.63 2.01 11.59 2 11.54 2L8.98 2C8.8 2.22 8.52 2.37 8.2 2.37L5.85 2.37C5.53 2.37 5.25 2.22 5.07 2ZM11.71 15.87L2 15.87L2 18.57C2 18.62 2.01 18.66 2.05 18.69Q2.07 18.72 2.1 18.73Q2.13 18.75 2.17 18.75L11.54 18.75C11.59 18.75 11.63 18.73 11.66 18.69C11.7 18.66 11.71 18.62 11.71 18.57L11.71 15.87ZM7.85 17.23C7.85 16.67 7.41 16.23 6.85 16.23C6.29 16.23 5.85 16.67 5.85 17.23L5.85 17.24C5.85 17.8 6.29 18.24 6.85 18.24C7.41 18.24 7.85 17.8 7.85 17.24L7.85 17.23Z" fill="#FFFFFF" fill-opacity="1.000000" fill-rule="evenodd"/>
</svg>
