<svg width="18.000000" height="18.000000" viewBox="0 0 18 18" fill="none" xmlns="http://www.w3.org/2000/svg" xmlns:xlink="http://www.w3.org/1999/xlink">
	<desc>
			Created with Pixso.
	</desc>
	<defs/>
	<path id="Vector" d="M4 10C5.1 10 6 10.89 6 12L6 15C6 16.1 5.1 17 4 17L3 17C1.89 17 1 16.1 1 15L1 12C1 10.89 1.89 10 3 10L4 10ZM15 10C16.1 10 17 10.89 17 12L17 15C17 16.1 16.1 17 15 17L14 17C12.89 17 12 16.1 12 15L12 12C12 10.89 12.89 10 14 10L15 10ZM1 12L1 9C1 6.87 1.84 4.84 3.34 3.34C4.84 1.84 6.87 1 9 1C11.12 1 13.15 1.84 14.65 3.34C16.15 4.84 17 6.87 17 9L17 12" stroke="#FFFFFF" stroke-opacity="1.000000" stroke-width="2.000000" stroke-linejoin="round"/>
</svg>
