<svg width="20.000000" height="17.999998" viewBox="0 0 20 18" fill="none" xmlns="http://www.w3.org/2000/svg" xmlns:xlink="http://www.w3.org/1999/xlink">
	<desc>
			Created with Pixso.
	</desc>
	<defs/>
	<path id="Vector" d="M4 4C4.53 4 5.03 3.78 5.41 3.41C5.78 3.03 6 2.53 6 2C6 1.73 6.1 1.48 6.29 1.29C6.48 1.1 6.73 1 7 1L13 1C13.26 1 13.51 1.1 13.7 1.29C13.89 1.48 14 1.73 14 2C14 2.53 14.21 3.03 14.58 3.41C14.96 3.78 15.46 4 16 4L17 4C17.53 4 18.03 4.21 18.41 4.58C18.78 4.96 19 5.46 19 6L19 15C19 15.53 18.78 16.03 18.41 16.41C18.03 16.78 17.53 17 17 17L3 17C2.46 17 1.96 16.78 1.58 16.41C1.21 16.03 1 15.53 1 15L1 6C1 5.46 1.21 4.96 1.58 4.58C1.96 4.21 2.46 4 3 4L4 4ZM10 13C8.34 13 7 11.65 7 10C7 8.34 8.34 7 10 7C11.65 7 13 8.34 13 10C13 11.65 11.65 13 10 13Z" stroke="#FFFFFF" stroke-opacity="1.000000" stroke-width="2.000000" stroke-linejoin="round"/>
</svg>
