<svg width="22.000000" height="14.000000" viewBox="0 0 22 14" fill="none" xmlns="http://www.w3.org/2000/svg" xmlns:xlink="http://www.w3.org/1999/xlink">
	<desc>
			Created with Pixso.
	</desc>
	<defs/>
	<path id="Vector" d="M3 0C1.34 0 0 1.34 0 3L0 11C0 12.65 1.34 14 3 14L19 14C20.65 14 22 12.65 22 11L22 3C22 1.34 20.65 0 19 0L3 0ZM2 3C2 2.44 2.44 2 3 2L19 2C19.55 2 20 2.44 20 3L20 11C20 11.55 19.55 12 19 12L3 12C2.44 12 2 11.55 2 11L2 3ZM8 5C8 4.44 7.55 4 7 4C6.44 4 6 4.44 6 5L6 6L5 6C4.44 6 4 6.44 4 7C4 7.55 4.44 8 5 8L6 8L6 9C6 9.55 6.44 10 7 10C7.55 10 8 9.55 8 9L8 8L9 8C9.55 8 10 7.55 10 7C10 6.44 9.55 6 9 6L8 6L8 5ZM14 4.5C14.82 4.5 15.5 5.17 15.5 6L15.5 6.01C15.5 6.83 14.82 7.51 14 7.51C13.17 7.51 12.5 6.83 12.5 6.01L12.5 6C12.5 5.17 13.17 4.5 14 4.5ZM18.5 7.99C18.5 7.17 17.82 6.49 17 6.49C16.17 6.49 15.5 7.17 15.5 7.99L15.5 8.01C15.5 8.83 16.17 9.51 17 9.51C17.82 9.51 18.5 8.83 18.5 8.01L18.5 7.99Z" fill="#FFFFFF" fill-opacity="1.000000" fill-rule="evenodd"/>
</svg>
